<mxfile host="app.diagrams.net" modified="2022-10-01T08:07:46.811Z" agent="5.0 (Windows NT 10.0; Win64; x64) AppleWebKit/537.36 (KHTML, like Gecko) Chrome/105.0.0.0 Safari/537.36" etag="saW6gAgfouMsNpSBkMia" version="20.3.7" type="github">
  <diagram id="C5RBs43oDa-KdzZeNtuy" name="Page-1">
    <mxGraphModel dx="2310" dy="1996" grid="1" gridSize="10" guides="1" tooltips="1" connect="1" arrows="1" fold="1" page="1" pageScale="1" pageWidth="827" pageHeight="1169" math="0" shadow="0">
      <root>
        <mxCell id="WIyWlLk6GJQsqaUBKTNV-0" />
        <mxCell id="WIyWlLk6GJQsqaUBKTNV-1" parent="WIyWlLk6GJQsqaUBKTNV-0" />
        <mxCell id="TAKUy8eeMv11N5sB7n3I-0" value="&lt;font style=&quot;font-size: 14px;&quot;&gt;&lt;br&gt;&lt;br&gt;&lt;br&gt;&lt;/font&gt;&lt;p style=&quot;font-size: 14px;&quot; class=&quot;MsoNormal&quot;&gt;&lt;span&gt;&lt;font style=&quot;font-size: 14px;&quot;&gt;Thư viện của một trường đại học K cần quản lý cái loại tài liệu bao gồm bài báo, giáo trình và luận văn. Mỗi tài liệu đều có nhan đề, tên tác giả và số lần mà tài liệu đó được tham khảo.&lt;/font&gt;&lt;/span&gt;&lt;/p&gt;&lt;font style=&quot;font-size: 14px;&quot;&gt;&lt;span style=&quot;background-color: initial;&quot;&gt;Với mỗi loại tài liệu, ta có thêm các thông tin khác&amp;nbsp;&lt;/span&gt;&lt;span style=&quot;background-color: initial;&quot;&gt;như sau:&lt;br&gt;&lt;/span&gt;&lt;span style=&quot;background-color: initial;&quot;&gt;- Bài báo có tên tạp chí đăng và số tạp chí.&lt;br&gt;&lt;/span&gt;&lt;span style=&quot;background-color: initial;&quot;&gt;- Giáo trình thì có nhà xuất bản và năm xuất bản.&amp;nbsp;&lt;br&gt;&lt;/span&gt;&lt;span style=&quot;background-color: initial;&quot;&gt;- Luận văn có ngành đào tạo và kết quả bảo vệ luận văn&amp;nbsp;&lt;/span&gt;&lt;span style=&quot;background-color: initial;&quot;&gt;(điểm luận văn – thang 10)&lt;br&gt;&lt;/span&gt;&lt;span style=&quot;background-color: initial;&quot;&gt;Thư viện có nhu cầu lọc ra các tài liệu tiêu biểu để&amp;nbsp;&lt;/span&gt;&lt;span style=&quot;background-color: initial;&quot;&gt;làm danh sách gợi ý tham khảo cho sinh viên trong trường. &lt;b&gt;&lt;i&gt;Tiêu chí xét tài liệu&amp;nbsp;&lt;/i&gt;&lt;/b&gt;&lt;/span&gt;&lt;span style=&quot;background-color: initial;&quot;&gt;tiêu biểu như sau:&lt;/span&gt;&lt;br&gt;&lt;/font&gt;&lt;p style=&quot;font-size: 14px;&quot; class=&quot;MsoNormal&quot;&gt;&lt;span&gt;&lt;font style=&quot;font-size: 14px;&quot;&gt;- Bài báo có ít nhất 10 lần được tham khảo.&lt;/font&gt;&lt;/span&gt;&lt;/p&gt;&lt;font style=&quot;font-size: 14px;&quot;&gt;&lt;span style=&quot;background-color: initial;&quot;&gt;- Giáo trình có&amp;nbsp;&lt;/span&gt;&lt;span style=&quot;background-color: initial;&quot;&gt;ít nhất 15 lần được tham khảo và chỉ xuất bản từ năm 2000 trở lại.&lt;/span&gt;&lt;br&gt;- Luận văn có ít nhất 2 lần được tham khảo và điểm luận văn từ 7 trở lên. &lt;br&gt;&lt;br&gt;&lt;/font&gt;" style="text;html=1;strokeColor=none;fillColor=none;align=left;verticalAlign=middle;whiteSpace=wrap;rounded=0;" vertex="1" parent="WIyWlLk6GJQsqaUBKTNV-1">
          <mxGeometry x="10" y="-320" width="790" height="200" as="geometry" />
        </mxCell>
        <mxCell id="TAKUy8eeMv11N5sB7n3I-1" value="Document" style="swimlane;fontStyle=1;align=center;verticalAlign=top;childLayout=stackLayout;horizontal=1;startSize=26;horizontalStack=0;resizeParent=1;resizeParentMax=0;resizeLast=0;collapsible=1;marginBottom=0;fontSize=14;" vertex="1" parent="WIyWlLk6GJQsqaUBKTNV-1">
          <mxGeometry x="70" y="-10" width="160" height="240" as="geometry" />
        </mxCell>
        <mxCell id="TAKUy8eeMv11N5sB7n3I-2" value="#title : String&#xa;#author : String&#xa;#readCount : int = 0" style="text;strokeColor=none;fillColor=none;align=left;verticalAlign=top;spacingLeft=4;spacingRight=4;overflow=hidden;rotatable=0;points=[[0,0.5],[1,0.5]];portConstraint=eastwest;fontSize=14;" vertex="1" parent="TAKUy8eeMv11N5sB7n3I-1">
          <mxGeometry y="26" width="160" height="114" as="geometry" />
        </mxCell>
        <mxCell id="TAKUy8eeMv11N5sB7n3I-3" value="" style="line;strokeWidth=1;fillColor=none;align=left;verticalAlign=middle;spacingTop=-1;spacingLeft=3;spacingRight=3;rotatable=0;labelPosition=right;points=[];portConstraint=eastwest;strokeColor=inherit;fontSize=14;" vertex="1" parent="TAKUy8eeMv11N5sB7n3I-1">
          <mxGeometry y="140" width="160" height="8" as="geometry" />
        </mxCell>
        <mxCell id="TAKUy8eeMv11N5sB7n3I-4" value="+read() : void" style="text;strokeColor=none;fillColor=none;align=left;verticalAlign=top;spacingLeft=4;spacingRight=4;overflow=hidden;rotatable=0;points=[[0,0.5],[1,0.5]];portConstraint=eastwest;fontSize=14;" vertex="1" parent="TAKUy8eeMv11N5sB7n3I-1">
          <mxGeometry y="148" width="160" height="92" as="geometry" />
        </mxCell>
        <mxCell id="TAKUy8eeMv11N5sB7n3I-9" value="Dissertation" style="swimlane;fontStyle=0;childLayout=stackLayout;horizontal=1;startSize=26;fillColor=none;horizontalStack=0;resizeParent=1;resizeParentMax=0;resizeLast=0;collapsible=1;marginBottom=0;fontSize=14;" vertex="1" parent="WIyWlLk6GJQsqaUBKTNV-1">
          <mxGeometry x="-380" y="320" width="140" height="78" as="geometry" />
        </mxCell>
        <mxCell id="TAKUy8eeMv11N5sB7n3I-10" value="- major : String" style="text;strokeColor=none;fillColor=none;align=left;verticalAlign=top;spacingLeft=4;spacingRight=4;overflow=hidden;rotatable=0;points=[[0,0.5],[1,0.5]];portConstraint=eastwest;fontSize=14;" vertex="1" parent="TAKUy8eeMv11N5sB7n3I-9">
          <mxGeometry y="26" width="140" height="26" as="geometry" />
        </mxCell>
        <mxCell id="TAKUy8eeMv11N5sB7n3I-12" value="- result : int{0,1,2,...,10}" style="text;strokeColor=none;fillColor=none;align=left;verticalAlign=top;spacingLeft=4;spacingRight=4;overflow=hidden;rotatable=0;points=[[0,0.5],[1,0.5]];portConstraint=eastwest;fontSize=14;" vertex="1" parent="TAKUy8eeMv11N5sB7n3I-9">
          <mxGeometry y="52" width="140" height="26" as="geometry" />
        </mxCell>
        <mxCell id="TAKUy8eeMv11N5sB7n3I-13" value="Curriculum" style="swimlane;fontStyle=0;childLayout=stackLayout;horizontal=1;startSize=26;fillColor=none;horizontalStack=0;resizeParent=1;resizeParentMax=0;resizeLast=0;collapsible=1;marginBottom=0;fontSize=14;" vertex="1" parent="WIyWlLk6GJQsqaUBKTNV-1">
          <mxGeometry x="-380" y="140" width="140" height="78" as="geometry" />
        </mxCell>
        <mxCell id="TAKUy8eeMv11N5sB7n3I-14" value="- publisher : String" style="text;strokeColor=none;fillColor=none;align=left;verticalAlign=top;spacingLeft=4;spacingRight=4;overflow=hidden;rotatable=0;points=[[0,0.5],[1,0.5]];portConstraint=eastwest;fontSize=14;" vertex="1" parent="TAKUy8eeMv11N5sB7n3I-13">
          <mxGeometry y="26" width="140" height="26" as="geometry" />
        </mxCell>
        <mxCell id="TAKUy8eeMv11N5sB7n3I-15" value="- pub_date : int" style="text;strokeColor=none;fillColor=none;align=left;verticalAlign=top;spacingLeft=4;spacingRight=4;overflow=hidden;rotatable=0;points=[[0,0.5],[1,0.5]];portConstraint=eastwest;fontSize=14;" vertex="1" parent="TAKUy8eeMv11N5sB7n3I-13">
          <mxGeometry y="52" width="140" height="26" as="geometry" />
        </mxCell>
        <mxCell id="TAKUy8eeMv11N5sB7n3I-16" value="Magazine" style="swimlane;fontStyle=0;childLayout=stackLayout;horizontal=1;startSize=26;fillColor=none;horizontalStack=0;resizeParent=1;resizeParentMax=0;resizeLast=0;collapsible=1;marginBottom=0;fontSize=14;" vertex="1" parent="WIyWlLk6GJQsqaUBKTNV-1">
          <mxGeometry x="-380" width="140" height="78" as="geometry" />
        </mxCell>
        <mxCell id="TAKUy8eeMv11N5sB7n3I-17" value="- name : String" style="text;strokeColor=none;fillColor=none;align=left;verticalAlign=top;spacingLeft=4;spacingRight=4;overflow=hidden;rotatable=0;points=[[0,0.5],[1,0.5]];portConstraint=eastwest;fontSize=14;" vertex="1" parent="TAKUy8eeMv11N5sB7n3I-16">
          <mxGeometry y="26" width="140" height="26" as="geometry" />
        </mxCell>
        <mxCell id="TAKUy8eeMv11N5sB7n3I-18" value="- No : String" style="text;strokeColor=none;fillColor=none;align=left;verticalAlign=top;spacingLeft=4;spacingRight=4;overflow=hidden;rotatable=0;points=[[0,0.5],[1,0.5]];portConstraint=eastwest;fontSize=14;" vertex="1" parent="TAKUy8eeMv11N5sB7n3I-16">
          <mxGeometry y="52" width="140" height="26" as="geometry" />
        </mxCell>
        <mxCell id="TAKUy8eeMv11N5sB7n3I-21" value="Extends" style="endArrow=block;endSize=16;endFill=0;html=1;rounded=0;fontSize=14;entryX=-0.024;entryY=0.825;entryDx=0;entryDy=0;entryPerimeter=0;" edge="1" parent="WIyWlLk6GJQsqaUBKTNV-1" target="TAKUy8eeMv11N5sB7n3I-2">
          <mxGeometry width="160" relative="1" as="geometry">
            <mxPoint x="-240" y="60" as="sourcePoint" />
            <mxPoint x="-80" y="60" as="targetPoint" />
          </mxGeometry>
        </mxCell>
        <mxCell id="TAKUy8eeMv11N5sB7n3I-22" value="Extends" style="endArrow=block;endSize=16;endFill=0;html=1;rounded=0;fontSize=14;entryX=-0.009;entryY=0.009;entryDx=0;entryDy=0;entryPerimeter=0;" edge="1" parent="WIyWlLk6GJQsqaUBKTNV-1" target="TAKUy8eeMv11N5sB7n3I-4">
          <mxGeometry width="160" relative="1" as="geometry">
            <mxPoint x="-240" y="179.95" as="sourcePoint" />
            <mxPoint x="66.16000000000008" y="229.99999999999994" as="targetPoint" />
          </mxGeometry>
        </mxCell>
        <mxCell id="TAKUy8eeMv11N5sB7n3I-23" value="Extends" style="endArrow=block;endSize=16;endFill=0;html=1;rounded=0;fontSize=14;entryX=-0.019;entryY=0.27;entryDx=0;entryDy=0;entryPerimeter=0;" edge="1" parent="WIyWlLk6GJQsqaUBKTNV-1" target="TAKUy8eeMv11N5sB7n3I-4">
          <mxGeometry width="160" relative="1" as="geometry">
            <mxPoint x="-240" y="360" as="sourcePoint" />
            <mxPoint x="66.16000000000008" y="410.04999999999995" as="targetPoint" />
          </mxGeometry>
        </mxCell>
        <mxCell id="TAKUy8eeMv11N5sB7n3I-24" value="Library" style="swimlane;fontStyle=1;align=center;verticalAlign=top;childLayout=stackLayout;horizontal=1;startSize=26;horizontalStack=0;resizeParent=1;resizeParentMax=0;resizeLast=0;collapsible=1;marginBottom=0;fontSize=14;" vertex="1" parent="WIyWlLk6GJQsqaUBKTNV-1">
          <mxGeometry x="270" y="372" width="190" height="94" as="geometry" />
        </mxCell>
        <mxCell id="TAKUy8eeMv11N5sB7n3I-25" value="- documents : Document[]" style="text;strokeColor=none;fillColor=none;align=left;verticalAlign=top;spacingLeft=4;spacingRight=4;overflow=hidden;rotatable=0;points=[[0,0.5],[1,0.5]];portConstraint=eastwest;fontSize=14;" vertex="1" parent="TAKUy8eeMv11N5sB7n3I-24">
          <mxGeometry y="26" width="190" height="34" as="geometry" />
        </mxCell>
        <mxCell id="TAKUy8eeMv11N5sB7n3I-26" value="" style="line;strokeWidth=1;fillColor=none;align=left;verticalAlign=middle;spacingTop=-1;spacingLeft=3;spacingRight=3;rotatable=0;labelPosition=right;points=[];portConstraint=eastwest;strokeColor=inherit;fontSize=14;" vertex="1" parent="TAKUy8eeMv11N5sB7n3I-24">
          <mxGeometry y="60" width="190" height="8" as="geometry" />
        </mxCell>
        <mxCell id="TAKUy8eeMv11N5sB7n3I-27" value="+filter() : Document[]" style="text;strokeColor=none;fillColor=none;align=left;verticalAlign=top;spacingLeft=4;spacingRight=4;overflow=hidden;rotatable=0;points=[[0,0.5],[1,0.5]];portConstraint=eastwest;fontSize=14;" vertex="1" parent="TAKUy8eeMv11N5sB7n3I-24">
          <mxGeometry y="68" width="190" height="26" as="geometry" />
        </mxCell>
        <mxCell id="TAKUy8eeMv11N5sB7n3I-28" value="" style="endArrow=diamondThin;endFill=1;endSize=24;html=1;rounded=0;fontSize=14;entryX=0;entryY=0.75;entryDx=0;entryDy=0;entryPerimeter=0;edgeStyle=orthogonalEdgeStyle;" edge="1" parent="WIyWlLk6GJQsqaUBKTNV-1" target="TAKUy8eeMv11N5sB7n3I-26">
          <mxGeometry width="160" relative="1" as="geometry">
            <mxPoint x="170" y="230" as="sourcePoint" />
            <mxPoint x="330" y="230" as="targetPoint" />
          </mxGeometry>
        </mxCell>
        <mxCell id="TAKUy8eeMv11N5sB7n3I-29" value="Use" style="endArrow=open;endSize=12;dashed=1;html=1;rounded=0;fontSize=14;" edge="1" parent="WIyWlLk6GJQsqaUBKTNV-1">
          <mxGeometry width="160" relative="1" as="geometry">
            <mxPoint x="80" y="180" as="sourcePoint" />
            <mxPoint x="240" y="180" as="targetPoint" />
          </mxGeometry>
        </mxCell>
        <mxCell id="TAKUy8eeMv11N5sB7n3I-30" value="Use" style="endArrow=open;endSize=12;dashed=1;html=1;rounded=0;fontSize=14;exitX=0.25;exitY=0;exitDx=0;exitDy=0;entryX=1.016;entryY=0.761;entryDx=0;entryDy=0;entryPerimeter=0;edgeStyle=orthogonalEdgeStyle;" edge="1" parent="WIyWlLk6GJQsqaUBKTNV-1" source="TAKUy8eeMv11N5sB7n3I-24" target="TAKUy8eeMv11N5sB7n3I-2">
          <mxGeometry width="160" relative="1" as="geometry">
            <mxPoint x="410" y="260" as="sourcePoint" />
            <mxPoint x="570" y="260" as="targetPoint" />
          </mxGeometry>
        </mxCell>
        <mxCell id="TAKUy8eeMv11N5sB7n3I-35" value="Validate" style="swimlane;fontStyle=0;childLayout=stackLayout;horizontal=1;startSize=26;fillColor=none;horizontalStack=0;resizeParent=1;resizeParentMax=0;resizeLast=0;collapsible=1;marginBottom=0;fontSize=14;" vertex="1" parent="WIyWlLk6GJQsqaUBKTNV-1">
          <mxGeometry x="510" y="20" width="240" height="60" as="geometry" />
        </mxCell>
        <mxCell id="TAKUy8eeMv11N5sB7n3I-38" value="- checkQuality(Document) : boolean" style="text;strokeColor=none;fillColor=none;align=left;verticalAlign=top;spacingLeft=4;spacingRight=4;overflow=hidden;rotatable=0;points=[[0,0.5],[1,0.5]];portConstraint=eastwest;fontSize=14;" vertex="1" parent="TAKUy8eeMv11N5sB7n3I-35">
          <mxGeometry y="26" width="240" height="34" as="geometry" />
        </mxCell>
        <mxCell id="TAKUy8eeMv11N5sB7n3I-39" value="Use" style="endArrow=open;endSize=12;dashed=1;html=1;rounded=0;fontSize=14;exitX=0.25;exitY=0;exitDx=0;exitDy=0;entryX=1.021;entryY=0.172;entryDx=0;entryDy=0;entryPerimeter=0;edgeStyle=orthogonalEdgeStyle;" edge="1" parent="WIyWlLk6GJQsqaUBKTNV-1" target="TAKUy8eeMv11N5sB7n3I-2">
          <mxGeometry width="160" relative="1" as="geometry">
            <mxPoint x="510" y="89.25" as="sourcePoint" />
            <mxPoint x="432.55999999999995" y="-179.9960000000001" as="targetPoint" />
          </mxGeometry>
        </mxCell>
        <mxCell id="TAKUy8eeMv11N5sB7n3I-40" value="Use" style="endArrow=open;endSize=12;dashed=1;html=1;rounded=0;fontSize=14;edgeStyle=orthogonalEdgeStyle;entryX=0.478;entryY=0.988;entryDx=0;entryDy=0;entryPerimeter=0;" edge="1" parent="WIyWlLk6GJQsqaUBKTNV-1" target="TAKUy8eeMv11N5sB7n3I-38">
          <mxGeometry width="160" relative="1" as="geometry">
            <mxPoint x="460" y="410" as="sourcePoint" />
            <mxPoint x="620" y="410" as="targetPoint" />
          </mxGeometry>
        </mxCell>
        <mxCell id="TAKUy8eeMv11N5sB7n3I-41" value="method&amp;nbsp; checkQuality(Document) return true //(&quot;Tiêu chí xét tài liệu &quot;)&lt;br&gt;if&amp;nbsp;&lt;br&gt;+) typeof Document is Magazine and readCount &amp;gt;=10&lt;br&gt;+) typeof Document is Curriculum and readCount &amp;gt;=15 and pub_date &amp;gt;=2000&lt;br&gt;-+) typeof Document is Dissertation and readCount &amp;gt;= 2 and result &amp;gt;=7" style="shape=note;whiteSpace=wrap;html=1;backgroundOutline=1;darkOpacity=0.05;fontSize=14;align=left;" vertex="1" parent="WIyWlLk6GJQsqaUBKTNV-1">
          <mxGeometry x="790" y="110" width="320" height="240" as="geometry" />
        </mxCell>
      </root>
    </mxGraphModel>
  </diagram>
</mxfile>
